<?xml version="1.0" encoding="utf-8"?>
<!-- Generator: Adobe Illustrator 15.1.0, SVG Export Plug-In . SVG Version: 6.00 Build 0)  -->
<!DOCTYPE svg PUBLIC "-//W3C//DTD SVG 1.1//EN" "http://www.w3.org/Graphics/SVG/1.1/DTD/svg11.dtd">
<svg version="1.1" xmlns="http://www.w3.org/2000/svg" xmlns:xlink="http://www.w3.org/1999/xlink" x="0px" y="0px"
	 width="20.154px" height="19.098px" viewBox="0 0 20.154 19.098" enable-background="new 0 0 20.154 19.098" xml:space="preserve">
<g id="Vrstva_1">
</g>
<g id="Vrstva_2">
	<path fill="#C4C4C4" d="M15.031,12.652l-0.473-0.463h-0.001l-2.54-2.546l7.136-7.114c0.193-0.191,0.302-0.448,0.304-0.722
		c0.001-0.274-0.104-0.53-0.295-0.725L18.6,0.514c-0.386-0.388-1.061-0.391-1.449-0.006L10.01,7.627L2.89,0.486
		C2.506,0.098,1.832,0.093,1.442,0.479L0.875,1.041C0.68,1.233,0.573,1.49,0.572,1.763C0.57,2.036,0.675,2.294,0.868,2.489
		l7.126,7.148L0.847,16.75c-0.195,0.191-0.303,0.447-0.304,0.725c-0.001,0.27,0.103,0.529,0.296,0.721l0.563,0.57
		c0.385,0.387,1.061,0.389,1.447,0.006l4.139-4.102l0.479-0.486l-0.001-0.002l2.538-2.531l7.107,7.141
		c0.193,0.199,0.451,0.307,0.727,0.307c0.272,0,0.528-0.105,0.721-0.297l0.568-0.563c0.193-0.193,0.299-0.449,0.303-0.725
		c0-0.271-0.105-0.529-0.297-0.725L15.031,12.652z"/>
</g>
</svg>
