<?xml version="1.0" encoding="utf-8"?>
<!-- Generator: Adobe Illustrator 15.1.0, SVG Export Plug-In . SVG Version: 6.00 Build 0)  -->
<!DOCTYPE svg PUBLIC "-//W3C//DTD SVG 1.1//EN" "http://www.w3.org/Graphics/SVG/1.1/DTD/svg11.dtd">
<svg version="1.1" id="Vrstva_1" xmlns="http://www.w3.org/2000/svg" xmlns:xlink="http://www.w3.org/1999/xlink" x="0px" y="0px"
	 width="255.846px" height="255.733px" viewBox="0 0 255.846 255.733" enable-background="new 0 0 255.846 255.733"
	 xml:space="preserve">
<g>
	<path fill="#F0F0F0" d="M255.846,127.734c0,70.691-57.305,128-128,128c-70.692,0-128-57.309-128-128c0-70.696,57.308-128,128-128
		C198.541-0.266,255.846,57.038,255.846,127.734L255.846,127.734z M255.846,127.734"/>
	<path fill="#D80027" d="M116.717,127.734c0,0-79.305,90.523-79.383,90.507c23.164,23.163,55.168,37.492,90.512,37.492
		c70.691,0,128-57.309,128-128H116.717z M116.717,127.734"/>
	<path fill="#0052B4" d="M37.338,37.222c-49.988,49.988-49.988,131.031,0,181.02c20.656-20.656,40.523-40.523,90.508-90.507
		L37.338,37.222z M37.338,37.222"/>
</g>
</svg>
