<?xml version="1.0" encoding="utf-8"?>
<!-- Generator: Adobe Illustrator 15.1.0, SVG Export Plug-In . SVG Version: 6.00 Build 0)  -->
<!DOCTYPE svg PUBLIC "-//W3C//DTD SVG 1.1//EN" "http://www.w3.org/Graphics/SVG/1.1/DTD/svg11.dtd">
<svg version="1.1" xmlns="http://www.w3.org/2000/svg" xmlns:xlink="http://www.w3.org/1999/xlink" x="0px" y="0px"
	 width="255.846px" height="255.733px" viewBox="0 0 255.846 255.733" enable-background="new 0 0 255.846 255.733"
	 xml:space="preserve">
<g id="Vrstva_1" display="none">
	<g display="inline">
		<path fill="#F0F0F0" d="M255.846,127.734c0,70.691-57.305,128-128,128c-70.692,0-128-57.309-128-128c0-70.696,57.308-128,128-128
			C198.541-0.266,255.846,57.038,255.846,127.734L255.846,127.734z M255.846,127.734"/>
		<path fill="#D80027" d="M116.717,127.734c0,0-79.305,90.523-79.383,90.507c23.164,23.163,55.168,37.492,90.512,37.492
			c70.691,0,128-57.309,128-128H116.717z M116.717,127.734"/>
		<path fill="#0052B4" d="M37.338,37.222c-49.988,49.988-49.988,131.031,0,181.02c20.656-20.656,40.523-40.523,90.508-90.507
			L37.338,37.222z M37.338,37.222"/>
	</g>
</g>
<g id="Vrstva_2" display="none">
	<g display="inline">
		<path fill="#FFDA44" d="M7.888,172.386c18.082,48.742,65,83.48,120.035,83.48s101.953-34.738,120.039-83.48l-120.039-11.129
			L7.888,172.386z M7.888,172.386"/>
		<path d="M127.923-0.133C72.888-0.133,25.97,34.601,7.888,83.343l120.035,11.133l120.039-11.133
			C229.876,34.601,182.958-0.133,127.923-0.133L127.923-0.133z M127.923-0.133"/>
		<path fill="#D80027" d="M7.888,83.343c-5.148,13.867-7.965,28.863-7.965,44.524c0,15.655,2.816,30.651,7.965,44.519h240.074
			c5.145-13.867,7.961-28.863,7.961-44.519c0-15.661-2.816-30.657-7.961-44.524H7.888z M7.888,83.343"/>
	</g>
</g>
<g id="Vrstva_3">
	<g>
		<path fill="#F0F0F0" d="M255.923,127.866c0,70.691-57.305,128-128,128c-70.691,0-128-57.309-128-128
			c0-70.695,57.309-127.999,128-127.999C198.618-0.133,255.923,57.171,255.923,127.866L255.923,127.866z M255.923,127.866"/>
		<path fill="#0052B4" d="M26.384,49.937C16.329,63.019,8.747,78.093,4.333,94.476h66.59L26.384,49.937z M26.384,49.937"/>
		<path fill="#0052B4" d="M251.517,94.476c-4.414-16.379-11.996-31.457-22.051-44.539l-44.539,44.539H251.517z M251.517,94.476"/>
		<path fill="#0052B4" d="M4.333,161.257c4.414,16.379,11.996,31.457,22.051,44.535l44.535-44.535H4.333z M4.333,161.257"/>
		<path fill="#0052B4" d="M205.853,26.327c-13.082-10.055-28.16-17.637-44.539-22.051v66.586L205.853,26.327z M205.853,26.327"/>
		<path fill="#0052B4" d="M49.993,229.405c13.082,10.055,28.16,17.637,44.539,22.051v-66.59L49.993,229.405z M49.993,229.405"/>
		<path fill="#0052B4" d="M94.532,4.276C78.153,8.69,63.075,16.272,49.997,26.327l44.535,44.535V4.276z M94.532,4.276"/>
		<path fill="#0052B4" d="M161.313,251.456c16.379-4.414,31.457-11.996,44.539-22.051l-44.539-44.539V251.456z M161.313,251.456"/>
		<path fill="#0052B4" d="M184.927,161.257l44.535,44.535c10.055-13.078,17.637-28.156,22.051-44.535H184.927z M184.927,161.257"/>
		<path fill="#D80027" d="M254.841,111.171H144.618V0.949c-5.465-0.712-11.035-1.082-16.695-1.082c-5.656,0-11.23,0.37-16.695,1.082
			v110.222H1.009c-0.715,5.465-1.086,11.035-1.086,16.695c0,5.656,0.371,11.23,1.086,16.695h110.219V254.78
			c5.465,0.711,11.039,1.086,16.695,1.086c5.66,0,11.23-0.375,16.695-1.086V144.562h110.223c0.711-5.465,1.082-11.039,1.082-16.695
			C255.923,122.206,255.552,116.636,254.841,111.171L254.841,111.171z M254.841,111.171"/>
		<path fill="#D80027" d="M161.313,161.257l57.121,57.117c2.625-2.625,5.133-5.371,7.523-8.219l-48.902-48.898H161.313z
			 M161.313,161.257"/>
		<path fill="#D80027" d="M94.532,161.257l-57.117,57.117c2.625,2.625,5.371,5.133,8.215,7.523l48.902-48.902V161.257z
			 M94.532,161.257"/>
		<path fill="#D80027" d="M94.532,94.476L37.415,37.354c-2.625,2.629-5.133,5.375-7.523,8.22l48.902,48.901H94.532z M94.532,94.476"
			/>
		<path fill="#D80027" d="M161.313,94.476l57.121-57.121c-2.629-2.625-5.375-5.133-8.219-7.523l-48.902,48.902V94.476z
			 M161.313,94.476"/>
	</g>
</g>
<g id="Vrstva_4" display="none">
	<g display="inline">
		<path fill="#FFDA44" d="M-0.077,127.867c0,15.656,2.815,30.652,7.961,44.52l120.039,11.128l120.038-11.128
			c5.144-13.867,7.962-28.867,7.962-44.523s-2.818-30.652-7.962-44.52L127.923,72.214L7.884,83.343
			C2.738,97.21-0.077,112.207-0.077,127.867L-0.077,127.867z M-0.077,127.867"/>
		<path fill="#D80027" d="M247.961,83.343C229.875,34.601,182.957-0.133,127.923-0.133C72.888-0.133,25.97,34.601,7.884,83.343
			H247.961z M247.961,83.343"/>
		<path fill="#D80027" d="M7.884,172.386c18.086,48.742,65.004,83.48,120.039,83.48c55.034,0,101.952-34.738,120.038-83.48H7.884z
			 M7.884,172.386"/>
	</g>
</g>
<g id="Vrstva_5" display="none">
	<g display="inline">
		<path fill="#F0F0F0" d="M255.923,127.867c0,70.691-57.305,128-128,128c-70.691,0-128-57.309-128-128c0-70.695,57.309-128,128-128
			C198.618-0.133,255.923,57.171,255.923,127.867L255.923,127.867z M255.923,127.867"/>
		<path fill="#0052B4" d="M247.962,172.386c5.145-13.867,7.961-28.863,7.961-44.52s-2.816-30.656-7.961-44.523H7.884
			c-5.145,13.867-7.961,28.863-7.961,44.523c0,15.656,2.816,30.652,7.961,44.52l120.039,11.128L247.962,172.386z M247.962,172.386"
			/>
		<path fill="#D80027" d="M127.923,255.866c55.035,0,101.953-34.738,120.039-83.48H7.884
			C25.97,221.128,72.888,255.866,127.923,255.866L127.923,255.866z M127.923,255.866"/>
	</g>
</g>
<g id="Vrstva_6" display="none">
	<g display="inline">
		<path fill="#F0F0F0" d="M255.923,127.866c0,70.691-57.305,128-128,128c-70.691,0-128-57.309-128-128
			c0-70.695,57.309-127.999,128-127.999C198.618-0.133,255.923,57.171,255.923,127.866L255.923,127.866z M255.923,127.866"/>
		<path fill="#D80027" d="M255.923,127.866c0-55.039-34.734-101.953-83.477-120.039v240.078
			C221.188,229.819,255.923,182.901,255.923,127.866L255.923,127.866z M255.923,127.866"/>
		<path fill="#0052B4" d="M-0.077,127.866c0,55.035,34.738,101.953,83.48,120.035V7.827C34.661,25.913-0.077,72.831-0.077,127.866
			L-0.077,127.866z M-0.077,127.866"/>
	</g>
</g>
</svg>
