<?xml version="1.0" encoding="UTF-8"?>
<!-- Generator: Adobe Illustrator 15.1.0, SVG Export Plug-In . SVG Version: 6.00 Build 0)  -->
<!DOCTYPE svg PUBLIC "-//W3C//DTD SVG 1.1//EN" "http://www.w3.org/Graphics/SVG/1.1/DTD/svg11.dtd">
<svg version="1.1" id="Layer_1" xmlns="http://www.w3.org/2000/svg" xmlns:xlink="http://www.w3.org/1999/xlink" x="0px" y="0px" width="239.773px" height="67.691px" viewBox="0 0 239.773 67.691" enable-background="new 0 0 239.773 67.691" xml:space="preserve">
<g>
	<polygon fill="#F47920" points="42.052,24.313 42.052,38.897 54.677,31.601  "/>
	<path fill="#C3C5C5" d="M-0.018,63.177l18.362-10.597c-5.131-1.715-8.821-5.53-8.885-12.125V18.639h9.438v21.348   c0.146,4.342,2.414,7.082,6.855,7.082c1.256,0,2.33-0.229,3.24-0.64l0.991-0.572c1.653-1.202,2.526-3.238,2.616-5.87V18.868h0.021   L-0.018,0.025V63.177L-0.018,63.177z"/>
	<path fill="#F47920" d="M68.222,49.476h1.968l1.969-7.433h-1.707l-1.047,4.814c-0.095,0.472-0.146,0.796-0.178,1.13h-0.042   c-0.031-0.334-0.084-0.659-0.178-1.13l-1.047-4.814h-1.706L68.222,49.476L68.222,49.476z M78.741,42.044h-2.689v7.433h1.622v-2.752   h1.078c1.518,0,2.408-0.859,2.408-2.366C81.159,42.914,80.269,42.044,78.741,42.044L78.741,42.044z M78.448,45.582h-0.774v-2.396   h0.774c0.659,0,1.005,0.376,1.005,1.172C79.453,45.164,79.097,45.582,78.448,45.582L78.448,45.582z M82.333,49.476h4.061v-1.361   h-2.438v-6.071h-1.622L82.333,49.476L82.333,49.476z M87.392,48.293v1.184h4.825v-1.299h-2.993l2.857-4.961v-1.172h-4.564v1.309   h2.763L87.392,48.293L87.392,48.293z M93.466,49.476h1.496v-3.873c0-0.502-0.01-1.046-0.021-1.435h0.021   c0.073,0.44,0.168,0.807,0.377,1.246l1.989,4.063h1.633v-7.433h-1.486v3.622c0,0.502,0,0.994,0.021,1.486h-0.021   c-0.084-0.513-0.188-0.858-0.366-1.235l-1.874-3.873h-1.769V49.476L93.466,49.476z M102.28,49.476v-7.433h-1.622v7.433H102.28   L102.28,49.476z"/>
	<path fill="#F47920" d="M66.505,34.605v1.183h4.826V34.49h-2.994l2.856-4.961v-1.172H66.63v1.309h2.764L66.505,34.605   L66.505,34.605z M77.113,26.703H75.68l-0.953,1.204h1.246L77.113,26.703L77.113,26.703z M76.8,35.788h1.633l-2.083-7.432h-1.978   l-2.094,7.432h1.634l0.419-1.727h2.051L76.8,35.788L76.8,35.788z M74.612,32.899l0.523-2.188c0.083-0.346,0.157-0.639,0.209-1.067   h0.021c0.063,0.429,0.136,0.722,0.209,1.067l0.522,2.188H74.612L74.612,32.899z M82.312,28.356h-2.689v7.432h1.623v-2.753h1.078   c1.518,0,2.407-0.858,2.407-2.366C84.729,29.225,83.839,28.356,82.312,28.356L82.312,28.356z M82.019,31.895h-0.774v-2.397h0.774   c0.659,0,1.004,0.377,1.004,1.172C83.023,31.476,82.667,31.895,82.019,31.895L82.019,31.895z M89.528,35.788h1.634l-2.082-7.432   H87.1l-2.094,7.432h1.633l0.419-1.727h2.052L89.528,35.788L89.528,35.788z M87.341,32.899l0.522-2.188   c0.083-0.346,0.157-0.639,0.21-1.067h0.021c0.063,0.429,0.136,0.722,0.21,1.067l0.522,2.188H87.341L87.341,32.899z M92.35,35.788   h2.396c1.937,0,3.131-1.089,3.131-3.726c0-2.606-1.185-3.706-3.109-3.706H92.35V35.788L92.35,35.788z M93.972,34.605v-5.066h0.785   c0.974,0,1.434,0.67,1.434,2.523c0,1.633-0.49,2.543-1.443,2.543H93.972L93.972,34.605z M101.94,35.966   c1.843,0,2.951-1.119,2.951-3.894c0-2.785-1.108-3.905-2.951-3.905c-1.853,0-2.962,1.12-2.962,3.905   C98.978,34.846,100.087,35.966,101.94,35.966L101.94,35.966z M101.94,34.689c-0.815,0-1.287-0.607-1.287-2.616   c0-2.031,0.472-2.617,1.287-2.617c0.808,0,1.268,0.586,1.268,2.617C103.207,34.082,102.747,34.689,101.94,34.689L101.94,34.689z    M110.715,26.755h-1.214l-0.607,0.744l-0.617-0.744h-1.214l0.994,1.204h1.664L110.715,26.755L110.715,26.755z M108.916,35.966   c1.56,0,2.574-0.932,2.7-2.689l-1.603-0.346c-0.073,1.267-0.45,1.727-1.088,1.727c-0.807,0-1.246-0.607-1.246-2.596   c0-1.989,0.471-2.585,1.235-2.585c0.68,0,1.024,0.377,1.078,1.716l1.61-0.293c-0.042-1.821-1.057-2.723-2.679-2.723   c-1.78,0-2.91,1.006-2.91,3.896C106.016,35.003,107.031,35.966,108.916,35.966L108.916,35.966z M114.623,34.564v-1.979h2.48v-1.214   h-2.48v-1.79h2.638v-1.225H113v7.432h4.333v-1.224H114.623L114.623,34.564z M121,35.966c1.633,0,2.575-0.963,2.575-2.313   c0-1.11-0.451-1.77-1.562-2.146l-1.067-0.355c-0.586-0.199-0.857-0.523-0.857-0.975c0-0.471,0.346-0.784,0.89-0.784   c0.64,0,1.131,0.407,1.34,1.329l1.319-0.66c-0.304-1.34-1.256-1.885-2.596-1.885c-1.466,0-2.502,0.807-2.502,2.167   c0,1.048,0.492,1.812,1.549,2.146l1.068,0.335c0.616,0.188,0.815,0.482,0.815,0.984c0,0.513-0.335,0.857-0.911,0.857   c-0.754,0-1.183-0.46-1.423-1.434l-1.425,0.628C118.561,35.212,119.492,35.966,121,35.966L121,35.966z M128.652,35.788h1.801   l-2.072-4.448l1.979-2.982h-1.778l-2.041,3.359v-3.359h-1.623v7.432h1.623v-2.167l0.712-1.099L128.652,35.788L128.652,35.788z    M135.503,26.703h-1.435l-0.952,1.204h1.245L135.503,26.703L135.503,26.703z M133.253,34.564v-1.979h2.479v-1.214h-2.479v-1.79   h2.638v-1.225h-4.261v7.432h4.333v-1.224H133.253L133.253,34.564z M140.087,28.356v5.223c0,1.466,0.974,2.387,2.647,2.387   c1.687,0,2.648-0.921,2.648-2.387v-5.223h-1.612v5.149c0,0.701-0.387,1.12-1.036,1.12c-0.648,0-1.024-0.419-1.024-1.12v-5.149   H140.087L140.087,28.356z M147.027,35.788h1.498v-3.873c0-0.503-0.011-1.047-0.021-1.434h0.021   c0.072,0.438,0.167,0.806,0.376,1.245l1.989,4.062h1.633v-7.432h-1.485v3.622c0,0.502,0,0.995,0.021,1.486h-0.021   c-0.084-0.513-0.188-0.857-0.366-1.234l-1.874-3.873h-1.771V35.788L147.027,35.788z M155.84,35.788v-7.432h-1.622v7.432H155.84   L155.84,35.788z M158.929,35.788h1.968l1.969-7.432h-1.706l-1.048,4.814c-0.094,0.472-0.146,0.795-0.177,1.13h-0.043   c-0.031-0.335-0.083-0.658-0.178-1.13l-1.046-4.814h-1.707L158.929,35.788L158.929,35.788z M165.621,34.564v-1.979h2.479v-1.214   h-2.479v-1.79h2.637v-1.225h-4.26v7.432h4.334v-1.224H165.621L165.621,34.564z M173.293,35.788h1.736l-1.34-3.233   c0.766-0.305,1.193-0.994,1.193-1.969c0-1.371-0.754-2.229-2.48-2.229h-2.647v7.432h1.623v-2.94h0.815L173.293,35.788   L173.293,35.788z M171.378,31.79v-2.313h0.784c0.723,0,1.016,0.377,1.016,1.108c0,0.754-0.304,1.204-1.016,1.204H171.378   L171.378,31.79z M176.076,34.605v1.183h4.824V34.49h-2.992l2.855-4.961v-1.172h-4.563v1.309h2.763L176.076,34.605L176.076,34.605z    M183.767,35.788v-7.432h-1.623v7.432H183.767L183.767,35.788z M190.095,28.356h-5.202v1.33h1.79v6.102h1.622v-6.102h1.79V28.356   L190.095,28.356z M192.939,35.788h1.633v-2.68l2.021-4.752h-1.707l-0.952,2.605c-0.084,0.263-0.125,0.492-0.157,0.765h-0.03   c-0.031-0.272-0.083-0.502-0.157-0.765l-0.973-2.605h-1.707l2.03,4.752L192.939,35.788L192.939,35.788z"/>
	<path fill="#F47920" d="M71.142,15.914v-1.245h-4.261v7.433h1.623V18.95h2.47v-1.225h-2.47v-1.812H71.142L71.142,15.914z    M76.099,22.101h1.633l-2.083-7.433H73.67l-2.093,7.433h1.633l0.418-1.728h2.052L76.099,22.101L76.099,22.101z M73.912,19.211   l0.522-2.188c0.083-0.347,0.157-0.64,0.209-1.068h0.021c0.063,0.429,0.137,0.722,0.209,1.068l0.522,2.188H73.912L73.912,19.211z    M82.658,22.101h1.801l-2.073-4.448l1.979-2.983h-1.78l-2.041,3.36v-3.36h-1.622v7.433h1.622v-2.167l0.712-1.1L82.658,22.101   L82.658,22.101z M85.542,14.669v5.224c0,1.465,0.973,2.386,2.647,2.386c1.686,0,2.647-0.921,2.647-2.386v-5.224h-1.611v5.149   c0,0.701-0.388,1.121-1.036,1.121s-1.025-0.419-1.025-1.121v-5.149H85.542L85.542,14.669z M92.482,22.101h4.063V20.74h-2.438   v-6.071h-1.623L92.482,22.101L92.482,22.101z M101.71,14.669h-5.202v1.329h1.79v6.104h1.623v-6.104h1.789V14.669L101.71,14.669z    M106.256,22.101h1.633l-2.082-7.433h-1.979l-2.094,7.433h1.634l0.419-1.728h2.052L106.256,22.101L106.256,22.101z M104.069,19.211   l0.523-2.188c0.084-0.347,0.157-0.64,0.21-1.068h0.021c0.063,0.429,0.137,0.722,0.209,1.068l0.522,2.188H104.069L104.069,19.211z    M113.521,20.875v-1.978h2.48v-1.214h-2.48v-1.79h2.639v-1.226h-4.261V22.1h4.333v-1.226H113.521L113.521,20.875z M121.393,22.101   h1.8l-2.071-4.448l1.979-2.983h-1.779l-2.041,3.36v-3.36h-1.621v7.433h1.621v-2.167l0.713-1.1L121.393,22.101L121.393,22.101z    M126.732,22.278c1.844,0,2.952-1.12,2.952-3.895c0-2.784-1.108-3.903-2.952-3.903c-1.853,0-2.962,1.12-2.962,3.903   C123.77,21.158,124.879,22.278,126.732,22.278L126.732,22.278z M126.732,21.001c-0.815,0-1.287-0.606-1.287-2.617   c0-2.03,0.472-2.616,1.287-2.616c0.807,0,1.268,0.586,1.268,2.616C127.999,20.395,127.538,21.001,126.732,21.001L126.732,21.001z    M131.092,22.101h1.497v-3.873c0-0.503-0.011-1.047-0.021-1.436h0.021c0.073,0.439,0.168,0.807,0.377,1.246l1.988,4.063h1.633   v-7.433h-1.486v3.622c0,0.502,0,0.995,0.021,1.486h-0.021c-0.083-0.513-0.188-0.858-0.366-1.235l-1.873-3.873h-1.77V22.101   L131.092,22.101z M140.958,22.278c1.843,0,2.952-1.12,2.952-3.895c0-2.784-1.109-3.903-2.952-3.903   c-1.854,0-2.962,1.12-2.962,3.903C137.997,21.158,139.106,22.278,140.958,22.278L140.958,22.278z M140.958,21.001   c-0.816,0-1.287-0.606-1.287-2.617c0-2.03,0.471-2.616,1.287-2.616c0.807,0,1.267,0.586,1.267,2.616   C142.225,20.395,141.765,21.001,140.958,21.001L140.958,21.001z M145.32,22.101h1.382v-4.407c0-0.45,0-0.995-0.031-1.413h0.042   c0.011,0.199,0.073,0.565,0.146,0.9l1.174,4.919h1.286l1.142-4.919c0.063-0.335,0.115-0.629,0.146-0.911h0.031   c-0.021,0.438-0.031,0.983-0.031,1.424v4.407h1.444v-7.433h-2.219l-0.963,4.197c-0.084,0.376-0.138,0.732-0.157,1.005h-0.031   c-0.021-0.271-0.073-0.618-0.157-0.995l-0.982-4.208h-2.22V22.101L145.32,22.101z M155.372,22.101v-7.433h-1.622v7.433H155.372   L155.372,22.101z M159.694,22.278c1.561,0,2.574-0.932,2.7-2.69l-1.602-0.346c-0.073,1.267-0.45,1.728-1.088,1.728   c-0.808,0-1.246-0.607-1.246-2.596c0-1.989,0.471-2.585,1.234-2.585c0.681,0,1.025,0.377,1.078,1.717l1.612-0.293   c-0.043-1.821-1.058-2.722-2.68-2.722c-1.78,0-2.91,1.005-2.91,3.894C156.794,21.315,157.81,22.278,159.694,22.278L159.694,22.278z    M167.516,22.101h1.8l-2.071-4.448l1.979-2.983h-1.779l-2.042,3.36v-3.36h-1.622v7.433h1.622v-2.167l0.712-1.1L167.516,22.101   L167.516,22.101z M175.073,13.015h-1.435l-0.953,1.203h1.246L175.073,13.015L175.073,13.015z M174.759,22.101h1.633l-2.084-7.433   h-1.978l-2.095,7.433h1.635l0.418-1.728h2.052L174.759,22.101L174.759,22.101z M172.571,19.211l0.523-2.188   c0.084-0.347,0.157-0.64,0.21-1.068h0.021c0.063,0.429,0.136,0.722,0.21,1.068l0.522,2.188H172.571L172.571,19.211z"/>
</g>
</svg>