<?xml version="1.0" encoding="utf-8"?>
<!-- Generator: Adobe Illustrator 15.1.0, SVG Export Plug-In . SVG Version: 6.00 Build 0)  -->
<!DOCTYPE svg PUBLIC "-//W3C//DTD SVG 1.1//EN" "http://www.w3.org/Graphics/SVG/1.1/DTD/svg11.dtd">
<svg version="1.1" id="Vrstva_3" xmlns="http://www.w3.org/2000/svg" xmlns:xlink="http://www.w3.org/1999/xlink" x="0px" y="0px"
	 width="70.867px" height="70.865px" viewBox="0 0 70.867 70.865" enable-background="new 0 0 70.867 70.865" xml:space="preserve">
<path fill="#173868" d="M23.714,7.179c-3.025,0.137-5.092,0.617-6.9,1.32c-1.869,0.727-3.455,1.699-5.034,3.279
	c-1.581,1.58-2.553,3.166-3.279,5.035c-0.704,1.809-1.184,3.875-1.321,6.9c-0.139,3.032-0.172,4-0.172,11.72
	s0.033,8.688,0.172,11.72c0.137,3.025,0.618,5.092,1.321,6.898c0.726,1.87,1.698,3.455,3.279,5.035
	c1.58,1.581,3.165,2.553,5.034,3.278c1.808,0.702,3.875,1.184,6.9,1.321c3.032,0.139,4,0.172,11.719,0.172
	c7.721,0,8.689-0.033,11.719-0.172c3.025-0.139,5.093-0.619,6.9-1.321c1.868-0.728,3.455-1.697,5.034-3.278
	c1.58-1.58,2.552-3.165,3.278-5.035c0.701-1.808,1.184-3.873,1.32-6.898c0.14-3.032,0.172-4,0.172-11.72s-0.032-8.688-0.172-11.72
	c-0.138-3.026-0.619-5.092-1.32-6.9c-0.727-1.869-1.698-3.455-3.278-5.035c-1.579-1.58-3.166-2.552-5.034-3.279
	c-1.809-0.703-3.875-1.184-6.9-1.32c-3.03-0.139-3.998-0.172-11.719-0.172C27.714,7.007,26.746,7.04,23.714,7.179 M23.948,58.571
	c-2.772-0.127-4.277-0.588-5.278-0.979c-1.328-0.517-2.273-1.132-3.269-2.126c-0.995-0.994-1.611-1.941-2.127-3.269
	c-0.389-1.001-0.852-2.507-0.979-5.278c-0.136-2.997-0.166-3.896-0.166-11.486c0-7.59,0.029-8.489,0.166-11.487
	c0.127-2.771,0.589-4.276,0.979-5.278c0.516-1.327,1.132-2.274,2.127-3.269c0.995-0.994,1.941-1.61,3.269-2.126
	c1.001-0.389,2.506-0.852,5.278-0.979c2.997-0.136,3.896-0.166,11.485-0.166c7.59,0,8.49,0.029,11.487,0.166
	c2.771,0.127,4.275,0.59,5.277,0.979c1.328,0.516,2.273,1.132,3.27,2.126c0.994,0.995,1.61,1.942,2.125,3.269
	c0.391,1.002,0.854,2.507,0.979,5.278c0.139,2.998,0.166,3.897,0.166,11.487c0,7.589-0.027,8.489-0.166,11.486
	c-0.127,2.771-0.588,4.277-0.979,5.278c-0.515,1.327-1.131,2.272-2.125,3.269c-0.994,0.994-1.941,1.609-3.27,2.126
	c-1.002,0.392-2.508,0.853-5.277,0.979c-2.996,0.138-3.896,0.164-11.487,0.164C27.845,58.735,26.945,58.708,23.948,58.571
	 M47.197,20.259c0,1.884,1.525,3.412,3.41,3.412s3.412-1.528,3.412-3.412c0-1.883-1.527-3.41-3.412-3.41
	C48.723,16.848,47.197,18.375,47.197,20.259 M20.836,35.433c0,8.063,6.536,14.597,14.597,14.597c8.063,0,14.596-6.534,14.596-14.597
	c0-8.062-6.533-14.598-14.596-14.598C27.373,20.835,20.836,27.371,20.836,35.433 M25.959,35.433c0-5.233,4.242-9.475,9.475-9.475
	c5.234,0,9.476,4.242,9.476,9.475c0,5.234-4.242,9.476-9.476,9.476C30.201,44.908,25.959,40.667,25.959,35.433"/>
</svg>
