<?xml version="1.0" encoding="utf-8"?>
<!-- Generator: Adobe Illustrator 15.1.0, SVG Export Plug-In . SVG Version: 6.00 Build 0)  -->
<!DOCTYPE svg PUBLIC "-//W3C//DTD SVG 1.1//EN" "http://www.w3.org/Graphics/SVG/1.1/DTD/svg11.dtd">
<svg version="1.1" id="Vrstva_2" xmlns="http://www.w3.org/2000/svg" xmlns:xlink="http://www.w3.org/1999/xlink" x="0px" y="0px"
	 width="70.867px" height="70.865px" viewBox="0 0 70.867 70.865" enable-background="new 0 0 70.867 70.865" xml:space="preserve">
<g>
	<path fill="#173868" d="M10.54,26.802h10.679v34.324H10.54V26.802z M15.882,9.74c3.413,0,6.183,2.771,6.183,6.186
		c0,3.416-2.771,6.188-6.183,6.188c-3.426,0-6.189-2.771-6.189-6.188C9.693,12.511,12.456,9.74,15.882,9.74"/>
	<path fill="#173868" d="M27.911,26.802h10.226v4.692h0.146c1.423-2.698,4.902-5.544,10.094-5.544
		c10.803,0,12.797,7.106,12.797,16.351v18.825H50.507V44.435c0-3.98-0.067-9.103-5.544-9.103c-5.551,0-6.396,4.339-6.396,8.815
		v16.979H27.911V26.802z"/>
</g>
</svg>
