<?xml version="1.0" encoding="utf-8"?>
<!-- Generator: Adobe Illustrator 15.1.0, SVG Export Plug-In . SVG Version: 6.00 Build 0)  -->
<!DOCTYPE svg PUBLIC "-//W3C//DTD SVG 1.1//EN" "http://www.w3.org/Graphics/SVG/1.1/DTD/svg11.dtd">
<svg version="1.1" id="Vrstva_1" xmlns="http://www.w3.org/2000/svg" xmlns:xlink="http://www.w3.org/1999/xlink" x="0px" y="0px"
	 width="250.5px" height="250.5px" viewBox="0 0 250.5 250.5" enable-background="new 0 0 250.5 250.5" xml:space="preserve">
<path fill="#0A5FAA" d="M246.105,224.895l-63.045-63.047C195.582,144.968,203,124.084,203,101.5C203,45.533,157.468,0,101.5,0
	C45.533,0,0,45.533,0,101.5C0,157.468,45.533,203,101.5,203c22.584,0,43.468-7.418,60.348-19.939l63.047,63.047
	c2.928,2.929,6.768,4.394,10.605,4.394s7.678-1.465,10.605-4.394C251.965,240.249,251.965,230.751,246.105,224.895z M22,101.5
	C22,57.664,57.664,22,101.5,22c43.837,0,79.5,35.664,79.5,79.5c0,43.837-35.663,79.5-79.5,79.5C57.664,181,22,145.337,22,101.5z"/>
</svg>
